<?xml version="1.0" encoding="utf-8"?>
<!-- Generator: Adobe Illustrator 22.1.0, SVG Export Plug-In . SVG Version: 6.00 Build 0)  -->
<svg version="1.1" id="Layer_1" xmlns="http://www.w3.org/2000/svg" xmlns:xlink="http://www.w3.org/1999/xlink" x="0px" y="0px"
	 viewBox="0 0 139.9 56.4" style="enable-background:new 0 0 139.9 56.4;" xml:space="preserve">
<style type="text/css">
	.st0{fill:#58595B;}
	.st1{fill:#FFFFFF;}
	.st2{fill:url(#SVGID_1_);}
</style>
<path class="st0" d="M59.6,39h2.4v-8.5c0-2.3-0.8-4.3-2.5-6c-1.7-1.7-3.7-2.5-6-2.5c-2.3,0-4.3,0.8-6,2.5c-1.7,1.7-2.5,3.7-2.5,6
	c0,2.3,0.8,4.3,2.5,6c1.7,1.7,3.7,2.5,6,2.5c2.3,0,4.4-0.8,6.1-2.5V39z M57.9,34.9c-1.2,1.2-2.6,1.8-4.3,1.8s-3.1-0.6-4.3-1.8
	c-1.2-1.2-1.8-2.6-1.8-4.3c0-1.7,0.6-3.1,1.8-4.3c1.2-1.2,2.6-1.8,4.3-1.8s3.1,0.6,4.3,1.8c1.2,1.2,1.8,2.6,1.8,4.3
	C59.6,32.2,59,33.7,57.9,34.9z"/>
<path class="st0" d="M115.3,39h2.4v-8.5c0-2.3-0.8-4.3-2.5-6c-1.7-1.7-3.7-2.5-6-2.5c-2.3,0-4.3,0.8-6,2.5c-1.7,1.7-2.5,3.7-2.5,6
	c0,2.3,0.8,4.3,2.5,6c1.7,1.7,3.7,2.5,6,2.5c2.3,0,4.4-0.8,6-2.5V39z M113.5,34.9c-1.2,1.2-2.6,1.8-4.3,1.8c-1.7,0-3.1-0.6-4.3-1.8
	c-1.2-1.2-1.8-2.6-1.8-4.3c0-1.7,0.6-3.1,1.8-4.3c1.2-1.2,2.6-1.8,4.3-1.8c1.7,0,3.1,0.6,4.3,1.8c1.2,1.2,1.8,2.6,1.8,4.3
	C115.3,32.2,114.7,33.7,113.5,34.9z"/>
<path class="st0" d="M77.9,24.2c-1.5-1.5-3.4-2.3-5.6-2.3c-2.2,0-4,0.8-5.6,2.3c-1.5,1.5-2.3,3.4-2.3,5.6v9.1h2.4v-9.1
	c0-1.5,0.5-2.8,1.6-3.8c1.1-1.1,2.3-1.6,3.8-1.6s2.8,0.5,3.8,1.6c1.1,1.1,1.6,2.3,1.6,3.8v9.1h2.4v-9.1
	C80.2,27.6,79.4,25.8,77.9,24.2z"/>
<path class="st0" d="M96.6,24.8c-1.6-1.9-3.7-2.9-6.1-2.9c-2.1,0-4.2,0.9-5.7,2.4c-1.5,1.5-2.2,3.3-2.2,5.4v9.1H85v-9
	c0-1.2,0.4-2.5,1.2-3.4c1.3-1.6,3.1-2.3,5.2-2c0.8,0.1,1.6,0.4,2.2,0.9c1.5,1.2,2.3,2.7,2.3,4.5v9.1h2.4v-9
	C98.4,28,97.8,26.2,96.6,24.8z"/>
<polygon class="st0" points="120.1,15.6 120.1,39 122.5,39 122.5,35.5 122.6,35.5 122.6,15.6 "/>
<path class="st0" d="M137.3,22.1l-5.2,12.6l-5.3-12.6h-2.6c0,0,0,0,0,0l6.6,15.7l-2.9,6.9h2.6l9.4-22.6H137.3z"/>
<g>
	<path class="st1" d="M23.2,28.2C23.2,28.2,23.2,28.2,23.2,28.2C23.2,28.2,23.2,28.2,23.2,28.2L23.2,28.2z"/>
	<linearGradient id="SVGID_1_" gradientUnits="userSpaceOnUse" x1="0" y1="28.2107" x2="32.3563" y2="28.2107">
		<stop  offset="0" style="stop-color:#EC297B"/>
		<stop  offset="0.1449" style="stop-color:#E7297C"/>
		<stop  offset="0.3078" style="stop-color:#DA2A7E"/>
		<stop  offset="0.4792" style="stop-color:#C32C81"/>
		<stop  offset="0.6566" style="stop-color:#A42E86"/>
		<stop  offset="0.8368" style="stop-color:#7C308C"/>
		<stop  offset="1" style="stop-color:#513392"/>
	</linearGradient>
	<path class="st2" d="M12,6.8l4.2-5.4c1.5-1.9,4.3-1.9,5.9-0.1c-0.2,5.6,0.7,11.2,2.1,16.7c-0.2,0.3-0.5,0.5-0.7,0.8
		c-2.6-4.5-6.2-8.5-10.7-11.6C12.6,7.2,12.3,7,12,6.8z M0,34.3l6.9,8.9c3.4-4.2,5.7-7.2,13.3-11.3C13.8,33.7,6.8,34.5,0,34.3z
		 M28.5,12.2c0.3,0.8,0.5,1.7,0.6,2.5c0.9-0.4,1.8-0.7,2.8-0.9l-6.6-8.4C26.7,7.6,27.8,9.8,28.5,12.2z M24.2,38.3
		c-0.2-0.3-0.5-0.5-0.7-0.8C20.9,42,17.2,46,12.8,49.1c-0.3,0.2-0.5,0.3-0.8,0.5l4.2,5.4c1.5,1.9,4.3,1.9,5.9,0.1
		C21.9,49.4,22.8,43.8,24.2,38.3z M20.3,24.6c-7.6-4.1-9.9-7.1-13.3-11.3L0,22.2C6.9,21.9,13.8,22.7,20.3,24.6z M28.5,44.3
		c-0.8,2.6-2.1,5.1-3.6,7.4l7.4-9c-1.1-0.2-2.2-0.5-3.2-0.9C29,42.6,28.8,43.4,28.5,44.3z"/>
</g>
<path class="st0" d="M43.8,37.7c-2.2,1.8-4.8,2.7-7.6,2.7c-3.3,0-6.2-1.2-8.6-3.5c-2.4-2.4-3.5-5.2-3.5-8.6c0-3.3,1.2-6.2,3.5-8.6
	c2.4-2.4,5.2-3.5,8.6-3.5c2.9,0,5.5,0.9,7.7,2.8l-1.7,1.7c-1.7-1.4-3.7-2.1-6-2.1c-2.7,0-5,0.9-6.8,2.8c-1.9,1.9-2.8,4.2-2.8,6.8
	c0,2.7,0.9,5,2.8,6.8c1.9,1.9,4.2,2.8,6.8,2.8c2.3,0,4.3-0.7,6-2.1 M42.2,35.9l1.6,1.8c-2.2,1.8-4.8,2.7-7.6,2.7"/>
</svg>
