<?xml version="1.0" encoding="utf-8"?><svg xmlns="http://www.w3.org/2000/svg" xmlns:xlink="http://www.w3.org/1999/xlink"><symbol viewBox="0 0 328.9 328.9" id="21-plus" xmlns="http://www.w3.org/2000/svg"><path d="M292.9 120.9c4.7 14 7.1 28.6 7.1 43.5 0 74.8-60.8 135.6-135.6 135.6S28.9 239.2 28.9 164.4 89.7 28.8 164.5 28.8c14.9 0 29.5 2.4 43.5 7.1V5.8C193.8 2 179.2 0 164.4 0 73.8 0 0 73.8 0 164.4s73.8 164.4 164.4 164.4S328.8 255 328.8 164.4c0-14.8-2-29.4-5.8-43.5h-30.1z"/><path d="M284.7 44.1V12.6H262v31.5h-31.4v22.7H262v31.5h22.7V66.8h31.5V44.1zM77.9 208.9c29.1-27.5 49.6-47 49.6-63.4 0-11.1-6.1-17.1-16.2-17.1-8.1 0-14.6 5.6-20.3 11.6l-14.3-14.3c11.2-12 21.9-18.1 38.3-18.1 22.5 0 37.9 14.4 37.9 36.4 0 19.2-18 39.8-36.7 59.1 5.9-.7 13.8-1.3 19.1-1.3h23V224H77.9v-15.1zm100.9-6.2h25v-66.1h-21.4v-16.4c12.3-2.3 20.4-5.4 28.4-10.4h19.5v93h21.4V224h-72.9v-21.3z"/></symbol><symbol viewBox="0 0 284.929 284.929" id="angle-down" xmlns="http://www.w3.org/2000/svg"><path d="M282.082 76.511l-14.274-14.273c-1.902-1.906-4.093-2.856-6.57-2.856-2.471 0-4.661.95-6.563 2.856L142.466 174.441 30.262 62.241c-1.903-1.906-4.093-2.856-6.567-2.856-2.475 0-4.665.95-6.567 2.856L2.856 76.515C.95 78.417 0 80.607 0 83.082c0 2.473.953 4.663 2.856 6.565l133.043 133.046c1.902 1.903 4.093 2.854 6.567 2.854s4.661-.951 6.562-2.854L282.082 89.647c1.902-1.903 2.847-4.093 2.847-6.565 0-2.475-.945-4.665-2.847-6.571z"/></symbol><symbol viewBox="0 0 137.065 137.064" id="angle-left" xmlns="http://www.w3.org/2000/svg"><path d="M55.12 68.532l51.606-51.614a7.006 7.006 0 0 0 0-9.911l-4.955-4.956a7.008 7.008 0 0 0-9.91 0L30.337 63.577a7.01 7.01 0 0 0 0 9.911l61.524 61.523a7.007 7.007 0 0 0 9.91 0l4.955-4.955a7.006 7.006 0 0 0 0-9.911L55.12 68.532z"/></symbol><symbol viewBox="0 0 284.935 284.936" id="angle-right" xmlns="http://www.w3.org/2000/svg"><path d="M222.701 135.9L89.652 2.857C87.748.955 85.557 0 83.084 0c-2.474 0-4.664.955-6.567 2.857L62.244 17.133c-1.906 1.903-2.855 4.089-2.855 6.567 0 2.478.949 4.664 2.855 6.567l112.204 112.204L62.244 254.677c-1.906 1.903-2.855 4.093-2.855 6.564 0 2.477.949 4.667 2.855 6.57l14.274 14.271c1.903 1.905 4.093 2.854 6.567 2.854 2.473 0 4.663-.951 6.567-2.854l133.042-133.044c1.902-1.902 2.854-4.093 2.854-6.567s-.945-4.664-2.847-6.571z"/></symbol><symbol viewBox="0 0 284.929 284.929" id="angle-up" xmlns="http://www.w3.org/2000/svg"><path d="M282.082 195.285L149.028 62.24c-1.901-1.903-4.088-2.856-6.562-2.856s-4.665.953-6.567 2.856L2.856 195.285C.95 197.191 0 199.378 0 201.853c0 2.474.953 4.664 2.856 6.566l14.272 14.271c1.903 1.903 4.093 2.854 6.567 2.854s4.664-.951 6.567-2.854l112.204-112.202 112.208 112.209c1.902 1.903 4.093 2.848 6.563 2.848 2.478 0 4.668-.951 6.57-2.848l14.274-14.277c1.902-1.902 2.847-4.093 2.847-6.566.001-2.476-.944-4.666-2.846-6.569z"/></symbol><symbol viewBox="0 0 512 512" id="arrow-down" xmlns="http://www.w3.org/2000/svg"><path d="M256 512l256-256H352V.001L160 0v256H0l256 256z"/></symbol><symbol viewBox="0 0 448 512" class="agsvg-inline--fa agfa-arrow-up agfa-w-14 agfa-2x" id="arrow-up" xmlns="http://www.w3.org/2000/svg"><path fill="currentColor" d="M34.9 289.5l-22.2-22.2c-9.4-9.4-9.4-24.6 0-33.9L207 39c9.4-9.4 24.6-9.4 33.9 0l194.3 194.3c9.4 9.4 9.4 24.6 0 33.9L413 289.4c-9.5 9.5-25 9.3-34.3-.4L264 168.6V456c0 13.3-10.7 24-24 24h-32c-13.3 0-24-10.7-24-24V168.6L69.2 289.1c-9.3 9.8-24.8 10-34.3.4z"/></symbol><symbol viewBox="0 0 508.52 508.52" id="attention" xmlns="http://www.w3.org/2000/svg"><path d="M254.26 0C113.845 0 0 113.845 0 254.26s113.845 254.26 254.26 254.26 254.26-113.845 254.26-254.26S394.675 0 254.26 0zm0 476.737c-122.68 0-222.477-99.829-222.477-222.477 0-122.68 99.797-222.477 222.477-222.477 122.649 0 222.477 99.797 222.477 222.477 0 122.648-99.829 222.477-222.477 222.477z"/><path d="M254.26 95.347c-17.544 0-31.782 14.239-31.782 31.782v158.912c0 17.544 14.239 31.782 31.782 31.782s31.782-14.239 31.782-31.782V127.13c0-17.544-14.238-31.783-31.782-31.783z"/><circle cx="254.26" cy="380.881" r="31.782"/></symbol><symbol viewBox="0 0 512 512" class="aisvg-inline--fa aifa-camera aifa-w-16 aifa-2x" id="camera" xmlns="http://www.w3.org/2000/svg"><path fill="currentColor" d="M512 144v288c0 26.5-21.5 48-48 48H48c-26.5 0-48-21.5-48-48V144c0-26.5 21.5-48 48-48h88l12.3-32.9c7-18.7 24.9-31.1 44.9-31.1h125.5c20 0 37.9 12.4 44.9 31.1L376 96h88c26.5 0 48 21.5 48 48zM376 288c0-66.2-53.8-120-120-120s-120 53.8-120 120 53.8 120 120 120 120-53.8 120-120zm-32 0c0 48.5-39.5 88-88 88s-88-39.5-88-88 39.5-88 88-88 88 39.5 88 88z"/></symbol><symbol viewBox="0 0 576 512" id="cart" xmlns="http://www.w3.org/2000/svg"><path d="M71.3 320h293.1l-6.5 32H89.5c-15.4 0-26.8 14.3-23.4 29.3l5.5 24.3C52.9 414.7 40 433.8 40 456c0 30.9 25.1 56 56 56s56-25.1 56-56c0-15.7-6.4-29.8-16.8-40h209.6c-10.4 10.2-16.8 24.3-16.8 40 0 30.9 25.1 56 56 56s56-25.1 56-56c0-20.8-11.3-38.9-28.1-48.6L482.1 64H552c13.3 0 24-10.7 24-24V24c0-13.3-10.7-24-24-24H449.5c-11.4 0-21.2 8-23.5 19.2L416.8 64H24C8.6 64-2.8 78.3.6 93.3l47.3 208c2.5 10.9 12.2 18.7 23.4 18.7z"/></symbol><symbol class="aksvg-inline--fa akfa-check akfa-w-16" viewBox="0 0 512 512" id="check" xmlns="http://www.w3.org/2000/svg"><path fill="currentColor" d="M173.898 439.404l-166.4-166.4c-9.997-9.997-9.997-26.206 0-36.204l36.203-36.204c9.997-9.998 26.207-9.998 36.204 0L192 312.69 432.095 72.596c9.997-9.997 26.207-9.997 36.204 0l36.203 36.204c9.997 9.997 9.997 26.206 0 36.204l-294.4 294.401c-9.998 9.997-26.207 9.997-36.204-.001z"/></symbol><symbol viewBox="0 0 95.939 95.939" id="close" xmlns="http://www.w3.org/2000/svg"><path d="M62.819 47.97l32.533-32.534a2 2 0 0 0 0-2.828L83.333.586a2.002 2.002 0 0 0-2.828 0L47.97 33.121 15.435.586c-.75-.75-2.078-.75-2.828 0L.587 12.608a2 2 0 0 0 0 2.828L33.121 47.97.587 80.504a2 2 0 0 0 0 2.828l12.02 12.021a2 2 0 0 0 2.828 0L47.97 62.818l32.535 32.535a2 2 0 0 0 2.828 0l12.02-12.021a2 2 0 0 0 0-2.828L62.819 47.97z"/></symbol><symbol viewBox="276 368 58.7 54" id="close-circle" xmlns="http://www.w3.org/2000/svg"><circle cx="305.3" cy="395" r="24"/><path fill="currentColor" d="M307.5 395l6.4-6.4c.6-.6.6-1.6 0-2.1-.6-.6-1.6-.6-2.1 0l-6.4 6.4-6.4-6.4c-.6-.6-1.6-.6-2.1 0-.6.6-.6 1.6 0 2.1l6.4 6.4-6.4 6.4c-.6.6-.6 1.6 0 2.1.6.6 1.6.6 2.1 0l6.4-6.4 6.4 6.4c.6.6 1.6.6 2.1 0 .6-.6.6-1.6 0-2.1l-6.4-6.4z"/></symbol><symbol viewBox="0 0 612 612" id="delivery" xmlns="http://www.w3.org/2000/svg"><path d="M21.474 377.522V117.138c0-14.469 11.729-26.199 26.199-26.199h260.25c14.469 0 26.198 11.73 26.198 26.199v260.385a8.732 8.732 0 0 1-8.733 8.733H30.207a8.733 8.733 0 0 1-8.733-8.734zm210.16 89.202c0 30.01-24.329 54.338-54.338 54.338s-54.338-24.328-54.338-54.338c0-30.011 24.329-54.338 54.338-54.338s54.338 24.327 54.338 54.338zm-27.17 0c0-15.005-12.164-27.169-27.169-27.169s-27.17 12.164-27.17 27.169 12.165 27.17 27.17 27.17 27.169-12.165 27.169-27.17zm-73.969-54.339H8.733A8.733 8.733 0 0 0 0 421.118v26.495a8.733 8.733 0 0 0 8.733 8.733h97.598c2.548-17.484 11.373-32.928 24.164-43.961zm385.443 54.339c0 30.01-24.329 54.338-54.338 54.338-30.01 0-54.338-24.328-54.338-54.338 0-30.011 24.328-54.338 54.338-54.338 30.009-.001 54.338 24.327 54.338 54.338zm-27.168 0c0-15.005-12.165-27.169-27.17-27.169-15.006 0-27.169 12.164-27.169 27.169s12.164 27.17 27.169 27.17 27.17-12.165 27.17-27.17zM612 421.118v26.495a8.733 8.733 0 0 1-8.733 8.733h-70.704c-5.057-34.683-34.906-61.427-70.961-61.427-36.062 0-65.912 26.745-70.969 61.427H248.261c-2.549-17.483-11.373-32.928-24.164-43.961h134.994V162.594c0-9.646 7.82-17.466 17.466-17.466h82.445a69.86 69.86 0 0 1 57.9 30.77l53.15 78.721a69.865 69.865 0 0 1 11.962 39.094v118.672h21.253a8.733 8.733 0 0 1 8.733 8.733zm-88.592-164.483l-42.501-60.393a8.734 8.734 0 0 0-7.142-3.707H407.47a8.734 8.734 0 0 0-8.733 8.733v60.393a8.732 8.732 0 0 0 8.733 8.733h108.798c7.074 0 11.212-7.973 7.14-13.759z"/></symbol><symbol viewBox="0 0 511.626 511.626" id="eye" xmlns="http://www.w3.org/2000/svg"><path d="M505.918 236.117c-26.651-43.587-62.485-78.609-107.497-105.065-45.015-26.457-92.549-39.687-142.608-39.687s-97.595 13.225-142.61 39.687C68.187 157.508 32.355 192.53 5.708 236.117 1.903 242.778 0 249.345 0 255.818c0 6.473 1.903 13.04 5.708 19.699 26.647 43.589 62.479 78.614 107.495 105.064 45.015 26.46 92.551 39.68 142.61 39.68 50.06 0 97.594-13.176 142.608-39.536 45.012-26.361 80.852-61.432 107.497-105.208 3.806-6.659 5.708-13.223 5.708-19.699 0-6.473-1.902-13.04-5.708-19.701zm-311.35-78.087c17.034-17.034 37.447-25.554 61.242-25.554 3.805 0 7.043 1.336 9.709 3.999 2.662 2.664 4 5.901 4 9.707 0 3.809-1.338 7.044-3.994 9.704-2.662 2.667-5.902 3.999-9.708 3.999-16.368 0-30.362 5.808-41.971 17.416-11.613 11.615-17.416 25.603-17.416 41.971 0 3.811-1.336 7.044-3.999 9.71-2.667 2.668-5.901 3.999-9.707 3.999-3.809 0-7.044-1.334-9.71-3.999-2.667-2.666-3.999-5.903-3.999-9.71 0-23.79 8.52-44.207 25.553-61.242zm185.299 191.01c-38.164 23.12-79.514 34.687-124.054 34.687-44.539 0-85.889-11.56-124.051-34.687s-69.901-54.2-95.215-93.222c28.931-44.921 65.19-78.518 108.777-100.783-11.61 19.792-17.417 41.207-17.417 64.236 0 35.216 12.517 65.329 37.544 90.362s55.151 37.544 90.362 37.544c35.214 0 65.329-12.518 90.362-37.544s37.545-55.146 37.545-90.362c0-23.029-5.808-44.447-17.419-64.236 43.585 22.265 79.846 55.865 108.776 100.783-25.31 39.022-57.046 70.095-95.21 93.222z"/></symbol><symbol viewBox="0 0 511.626 511.627" id="eye-closed" xmlns="http://www.w3.org/2000/svg"><path d="M361.161 291.652c15.037-21.796 22.56-45.922 22.56-72.375 0-7.422-.76-15.417-2.286-23.984l-79.938 143.321c24.738-9.513 44.628-25.176 59.664-46.962zm11.711-197.431c.191-.378.28-1.235.28-2.568 0-3.237-1.522-5.802-4.571-7.715-.568-.38-2.423-1.475-5.568-3.287a526.3 526.3 0 0 1-8.989-5.282 194.001 194.001 0 0 0-9.422-5.28c-3.426-1.809-6.375-3.284-8.846-4.427-2.479-1.141-4.189-1.713-5.141-1.713-3.426 0-6.092 1.525-7.994 4.569l-15.413 27.696c-17.316-3.234-34.451-4.854-51.391-4.854-51.201 0-98.404 12.946-141.613 38.831C70.998 156.08 34.836 191.385 5.711 236.114 1.903 242.019 0 248.586 0 255.819c0 7.231 1.903 13.801 5.711 19.698 16.748 26.073 36.592 49.396 59.528 69.949 22.936 20.561 48.011 37.018 75.229 49.396-8.375 14.273-12.562 22.556-12.562 24.842 0 3.425 1.524 6.088 4.57 7.99 23.219 13.329 35.97 19.985 38.256 19.985 3.422 0 6.089-1.529 7.992-4.575l13.99-25.406c20.177-35.967 50.248-89.931 90.222-161.878 39.972-71.949 69.95-125.815 89.936-161.599zM158.456 362.885C108.97 340.616 68.33 304.93 36.547 255.822c28.931-44.921 65.19-78.518 108.777-100.783-11.61 19.792-17.417 41.206-17.417 64.237 0 20.365 4.661 39.68 13.99 57.955 9.327 18.274 22.27 33.4 38.83 45.392l-22.271 40.262zm107.069-206.998c-2.662 2.667-5.906 3.999-9.712 3.999-16.368 0-30.361 5.808-41.971 17.416-11.613 11.615-17.416 25.603-17.416 41.971 0 3.811-1.336 7.044-3.999 9.71-2.668 2.667-5.902 3.999-9.707 3.999-3.809 0-7.045-1.334-9.71-3.999-2.667-2.666-3.999-5.903-3.999-9.71 0-23.79 8.52-44.206 25.553-61.242 17.034-17.034 37.447-25.553 61.241-25.553 3.806 0 7.043 1.336 9.713 3.999 2.662 2.664 3.996 5.901 3.996 9.707.001 3.808-1.333 7.044-3.989 9.703z"/><path d="M505.916 236.114c-10.853-18.08-24.603-35.594-41.255-52.534-16.646-16.939-34.022-31.496-52.105-43.68l-17.987 31.977c31.785 21.888 58.625 49.87 80.51 83.939-23.024 35.782-51.723 65-86.07 87.648-34.358 22.661-71.712 35.693-112.065 39.115l-21.129 37.688c42.257 0 82.18-9.038 119.769-27.121 37.59-18.076 70.668-43.488 99.216-76.225 13.322-15.421 23.695-29.219 31.121-41.401 3.806-6.476 5.708-13.046 5.708-19.702-.003-6.661-1.905-13.228-5.713-19.704z"/></symbol><symbol class="aqsvg-inline--fa aqfa-facebook-f aqfa-w-9" viewBox="0 0 264 512" id="facebook" xmlns="http://www.w3.org/2000/svg"><path fill="currentColor" d="M76.7 512V283H0v-91h76.7v-71.7C76.7 42.4 124.3 0 193.8 0c33.3 0 61.9 2.5 70.2 3.6V85h-48.2c-37.8 0-45.1 18-45.1 44.3V192H256l-11.7 91h-73.6v229"/></symbol><symbol viewBox="0 0 384 512" class="arsvg-inline--fa arfa-file arfa-w-12 arfa-2x" id="file" xmlns="http://www.w3.org/2000/svg"><path d="M369.9 97.9L286 14C277 5 264.8-.1 252.1-.1H48C21.5 0 0 21.5 0 48v416c0 26.5 21.5 48 48 48h288c26.5 0 48-21.5 48-48V131.9c0-12.7-5.1-25-14.1-34zM332.1 128H256V51.9l76.1 76.1zM48 464V48h160v104c0 13.3 10.7 24 24 24h104v288H48z"/></symbol><symbol viewBox="0 0 512 512" id="filter" xmlns="http://www.w3.org/2000/svg"><path d="M496 384H160v-16c0-8.8-7.2-16-16-16h-32c-8.8 0-16 7.2-16 16v16H16c-8.8 0-16 7.2-16 16v32c0 8.8 7.2 16 16 16h80v16c0 8.8 7.2 16 16 16h32c8.8 0 16-7.2 16-16v-16h336c8.8 0 16-7.2 16-16v-32c0-8.8-7.2-16-16-16zm0-160h-80v-16c0-8.8-7.2-16-16-16h-32c-8.8 0-16 7.2-16 16v16H16c-8.8 0-16 7.2-16 16v32c0 8.8 7.2 16 16 16h336v16c0 8.8 7.2 16 16 16h32c8.8 0 16-7.2 16-16v-16h80c8.8 0 16-7.2 16-16v-32c0-8.8-7.2-16-16-16zm0-160H288V48c0-8.8-7.2-16-16-16h-32c-8.8 0-16 7.2-16 16v16H16C7.2 64 0 71.2 0 80v32c0 8.8 7.2 16 16 16h208v16c0 8.8 7.2 16 16 16h32c8.8 0 16-7.2 16-16v-16h208c8.8 0 16-7.2 16-16V80c0-8.8-7.2-16-16-16z"/></symbol><symbol viewBox="0 0 48 48" id="flask" xmlns="http://www.w3.org/2000/svg"><path d="M42.504 39.673L29.88 16.027V4.021h1.249a1 1 0 0 0 1-1V1a1 1 0 0 0-1-1H15.898a1 1 0 0 0-1 1v2.021a1 1 0 0 0 1 1h1.144v12.007L5.421 39.57C2.451 44.226 4.519 48 10.042 48h27.999c5.522 0 7.52-3.729 4.463-8.327zM20.628 17.798l.413-.837V4.021h4.839v13.008l.471.883 5.41 10.132h-16.19l5.057-10.246z"/></symbol><symbol viewBox="0 0 460.298 460.297" id="home" xmlns="http://www.w3.org/2000/svg"><path d="M230.149 120.939L65.986 256.274c0 .191-.048.472-.144.855-.094.38-.144.656-.144.852v137.041c0 4.948 1.809 9.236 5.426 12.847 3.616 3.613 7.898 5.431 12.847 5.431h109.63V303.664h73.097v109.64h109.629c4.948 0 9.236-1.814 12.847-5.435 3.617-3.607 5.432-7.898 5.432-12.847V257.981c0-.76-.104-1.334-.288-1.707L230.149 120.939z"/><path d="M457.122 225.438L394.6 173.476V56.989c0-2.663-.856-4.853-2.574-6.567-1.704-1.712-3.894-2.568-6.563-2.568h-54.816c-2.666 0-4.855.856-6.57 2.568-1.711 1.714-2.566 3.905-2.566 6.567v55.673l-69.662-58.245c-6.084-4.949-13.318-7.423-21.694-7.423-8.375 0-15.608 2.474-21.698 7.423L3.172 225.438c-1.903 1.52-2.946 3.566-3.14 6.136-.193 2.568.472 4.811 1.997 6.713l17.701 21.128c1.525 1.712 3.521 2.759 5.996 3.142 2.285.192 4.57-.476 6.855-1.998L230.149 95.817l197.57 164.741c1.526 1.328 3.521 1.991 5.996 1.991h.858c2.471-.376 4.463-1.43 5.996-3.138l17.703-21.125c1.522-1.906 2.189-4.145 1.991-6.716-.195-2.563-1.242-4.609-3.141-6.132z"/></symbol><symbol class="avsvg-inline--fa avfa-instagram avfa-w-14" viewBox="0 0 448 512" id="instagram" xmlns="http://www.w3.org/2000/svg"><path fill="currentColor" d="M224.1 141c-63.6 0-114.9 51.3-114.9 114.9s51.3 114.9 114.9 114.9S339 319.5 339 255.9 287.7 141 224.1 141zm0 189.6c-41.1 0-74.7-33.5-74.7-74.7s33.5-74.7 74.7-74.7 74.7 33.5 74.7 74.7-33.6 74.7-74.7 74.7zm146.4-194.3c0 14.9-12 26.8-26.8 26.8-14.9 0-26.8-12-26.8-26.8s12-26.8 26.8-26.8 26.8 12 26.8 26.8zm76.1 27.2c-1.7-35.9-9.9-67.7-36.2-93.9-26.2-26.2-58-34.4-93.9-36.2-37-2.1-147.9-2.1-184.9 0-35.8 1.7-67.6 9.9-93.9 36.1s-34.4 58-36.2 93.9c-2.1 37-2.1 147.9 0 184.9 1.7 35.9 9.9 67.7 36.2 93.9s58 34.4 93.9 36.2c37 2.1 147.9 2.1 184.9 0 35.9-1.7 67.7-9.9 93.9-36.2 26.2-26.2 34.4-58 36.2-93.9 2.1-37 2.1-147.8 0-184.8zM398.8 388c-7.8 19.6-22.9 34.7-42.6 42.6-29.5 11.7-99.5 9-132.1 9s-102.7 2.6-132.1-9c-19.6-7.8-34.7-22.9-42.6-42.6-11.7-29.5-9-99.5-9-132.1s-2.6-102.7 9-132.1c7.8-19.6 22.9-34.7 42.6-42.6 29.5-11.7 99.5-9 132.1-9s102.7-2.6 132.1 9c19.6 7.8 34.7 22.9 42.6 42.6 11.7 29.5 9 99.5 9 132.1s2.7 102.7-9 132.1z"/></symbol><symbol viewBox="0 0 24 24" id="messages" xmlns="http://www.w3.org/2000/svg"><path d="M20 10V8h4v12h-3v4l-5.33-4H8v-4h12zm-2 4H8.33L3 18v-4H0V0h18z"/></symbol><symbol viewBox="0 0 21.2 20.7" id="minus" xmlns="http://www.w3.org/2000/svg"><path d="M4.6 9.4h12v1.9h-12z"/></symbol><symbol viewBox="0 0 512.001 512.001" id="paper-clip" xmlns="http://www.w3.org/2000/svg"><path d="M256.001 0c-71.047 0-129.186 57.803-129.186 128.852v289.064c0 51.879 42.374 94.086 94.253 94.086s94.253-42.207 94.253-94.086v-252.49c0-32.709-26.611-59.32-59.32-59.32s-59.32 26.611-59.32 59.32v218.587c0 10.92 8.853 19.773 19.773 19.773s19.773-8.853 19.773-19.773V165.426c0-10.903 8.87-19.773 19.773-19.773s19.773 8.87 19.773 19.773v252.49c0 30.073-24.634 54.539-54.706 54.539s-54.706-24.466-54.706-54.539V128.852c0-49.242 40.397-89.305 89.64-89.305s89.64 40.062 89.64 89.305v270.553c0 10.92 8.853 19.773 19.773 19.773s19.773-8.853 19.773-19.773V128.852C385.187 57.803 327.049 0 256.001 0z"/></symbol><symbol viewBox="0 0 320 512" class="azsvg-inline--fa azfa-mobile-alt azfa-w-10 azfa-2x" id="phone" xmlns="http://www.w3.org/2000/svg"><path d="M272 0H48C21.5 0 0 21.5 0 48v416c0 26.5 21.5 48 48 48h224c26.5 0 48-21.5 48-48V48c0-26.5-21.5-48-48-48zM160 480c-17.7 0-32-14.3-32-32s14.3-32 32-32 32 14.3 32 32-14.3 32-32 32zm112-108c0 6.6-5.4 12-12 12H60c-6.6 0-12-5.4-12-12V60c0-6.6 5.4-12 12-12h200c6.6 0 12 5.4 12 12v312z"/></symbol><symbol viewBox="0 0 21.2 20.7" id="plus" xmlns="http://www.w3.org/2000/svg"><path d="M16.6 9.4v1.9h-5v5h-2v-5h-5V9.4h5V4.3h2v5.1z"/></symbol><symbol viewBox="0 0 510 510" id="plus-circle" xmlns="http://www.w3.org/2000/svg"><path d="M280.5 153h-51v76.5H153v51h76.5V357h51v-76.5H357v-51h-76.5V153zM255 0C114.75 0 0 114.75 0 255s114.75 255 255 255 255-114.75 255-255S395.25 0 255 0zm0 459c-112.2 0-204-91.8-204-204S142.8 51 255 51s204 91.8 204 204-91.8 204-204 204z"/></symbol><symbol viewBox="0 0 512 512" class="bcsvg-inline--fa bcfa-print bcfa-w-16 bcfa-2x" id="print" xmlns="http://www.w3.org/2000/svg"><path fill="currentColor" d="M448 192V77.25c0-8.49-3.37-16.62-9.37-22.63L393.37 9.37c-6-6-14.14-9.37-22.63-9.37H96C78.33 0 64 14.33 64 32v160c-35.35 0-64 28.65-64 64v112c0 8.84 7.16 16 16 16h48v96c0 17.67 14.33 32 32 32h320c17.67 0 32-14.33 32-32v-96h48c8.84 0 16-7.16 16-16V256c0-35.35-28.65-64-64-64zm-64 256H128v-96h256v96zm0-224H128V64h192v48c0 8.84 7.16 16 16 16h48v96zm48 72c-13.25 0-24-10.75-24-24 0-13.26 10.75-24 24-24s24 10.74 24 24c0 13.25-10.75 24-24 24z"/></symbol><symbol viewBox="0 0 15 15" id="search" xmlns="http://www.w3.org/2000/svg"><path d="M14.8 13.7L11.1 10c.9-1.1 1.5-2.5 1.5-3.9C12.5 2.7 9.7 0 6.3 0S0 2.7 0 6.1c0 3.3 2.8 6.1 6.3 6.1 1.3 0 2.5-.4 3.6-1.1l3.7 3.7c.2.2.4.2.6.2.2 0 .4-.1.6-.2.3-.3.3-.8 0-1.1zM6.3 1.6c2.6 0 4.6 2 4.6 4.5s-2.1 4.5-4.6 4.5-4.6-2-4.6-4.5c-.1-2.5 2-4.5 4.6-4.5z"/></symbol><symbol class="besvg-inline--fa befa-share befa-w-16" viewBox="0 0 512 512" id="share" xmlns="http://www.w3.org/2000/svg"><path fill="currentColor" d="M503.691 189.836L327.687 37.851C312.281 24.546 288 35.347 288 56.015v80.053C127.371 137.907 0 170.1 0 322.326c0 61.441 39.581 122.309 83.333 154.132 13.653 9.931 33.111-2.533 28.077-18.631C66.066 312.814 132.917 274.316 288 272.085V360c0 20.7 24.3 31.453 39.687 18.164l176.004-152c11.071-9.562 11.086-26.753 0-36.328z"/></symbol><symbol viewBox="0 0 25.5 36.1" id="slider-decor" xmlns="http://www.w3.org/2000/svg"><path d="M19 34.1H6.5c-2.1 0-3.8-1.7-3.8-3.7V5.7C2.8 3.7 4.4 2 6.5 2H19c2.1 0 3.8 1.7 3.8 3.8v24.7c0 2-1.7 3.6-3.8 3.6z"/><path d="M8.3 8.6h.8v18.9h-.8zm4 0h.8v18.9h-.8zm4.1 0h.8v18.9h-.8z"/></symbol><symbol viewBox="0 0 29.536 29.536" id="tooltip" xmlns="http://www.w3.org/2000/svg"><path d="M14.768 0C6.611 0 0 6.609 0 14.768c0 8.155 6.611 14.767 14.768 14.767s14.768-6.612 14.768-14.767C29.535 6.609 22.924 0 14.768 0zm0 27.126c-6.828 0-12.361-5.532-12.361-12.359 0-6.828 5.533-12.362 12.361-12.362 6.826 0 12.359 5.535 12.359 12.362s-5.533 12.359-12.359 12.359z"/><path d="M14.385 19.337c-1.338 0-2.289.951-2.289 2.34 0 1.336.926 2.339 2.289 2.339 1.414 0 2.314-1.003 2.314-2.339-.027-1.389-.928-2.34-2.314-2.34zm.357-13.245c-1.824 0-3.34.513-4.293 1.053l.875 2.804c.668-.462 1.697-.772 2.545-.772 1.285.027 1.879.644 1.879 1.543 0 .85-.67 1.697-1.494 2.701-1.156 1.364-1.594 2.701-1.516 4.012l.025.669h3.42v-.463c-.025-1.158.387-2.162 1.311-3.215.979-1.08 2.211-2.366 2.211-4.321 0-2.135-1.566-4.011-4.963-4.011z"/></symbol><symbol class="bhsvg-inline--fa bhfa-twitter bhfa-w-16" viewBox="0 0 512 512" id="twitter" xmlns="http://www.w3.org/2000/svg"><path fill="currentColor" d="M459.37 151.716c.325 4.548.325 9.097.325 13.645 0 138.72-105.583 298.558-298.558 298.558-59.452 0-114.68-17.219-161.137-47.106 8.447.974 16.568 1.299 25.34 1.299 49.055 0 94.213-16.568 130.274-44.832-46.132-.975-84.792-31.188-98.112-72.772 6.498.974 12.995 1.624 19.818 1.624 9.421 0 18.843-1.3 27.614-3.573-48.081-9.747-84.143-51.98-84.143-102.985v-1.299c13.969 7.797 30.214 12.67 47.431 13.319-28.264-18.843-46.781-51.005-46.781-87.391 0-19.492 5.197-37.36 14.294-52.954 51.655 63.675 129.3 105.258 216.365 109.807-1.624-7.797-2.599-15.918-2.599-24.04 0-57.828 46.782-104.934 104.934-104.934 30.213 0 57.502 12.67 76.67 33.137 23.715-4.548 46.456-13.32 66.599-25.34-7.798 24.366-24.366 44.833-46.132 57.827 21.117-2.273 41.584-8.122 60.426-16.243-14.292 20.791-32.161 39.308-52.628 54.253z"/></symbol><symbol viewBox="0 0 408 408" id="user" xmlns="http://www.w3.org/2000/svg"><path d="M204 204c56.1 0 102-45.9 102-102S260.1 0 204 0 102 45.9 102 102s45.9 102 102 102zm0 51C135.1 255 0 288.1 0 357v51h408v-51c0-68.9-135.1-102-204-102z"/></symbol></svg>